<!--<?xml version="1.0" encoding="UTF-8"?>-->
<svg class="overopsLogo" width="172px" height="38px" viewBox="0 0 172 38" version="1.1" xmlns="http://www.w3.org/2000/svg" xmlns:xlink="http://www.w3.org/1999/xlink">
    <!-- Generator: Sketch 57.1 (83088) - https://sketch.com -->
    <title>overops_logo_172</title>
    <desc>Created with Sketch.</desc>
    <g id="Assets" stroke="none" stroke-width="1" fill="none" fill-rule="evenodd">
        <g id="overops_logo_172" fill-rule="nonzero">
            <g id="regular">
                <path d="M123.613642,15.2181818 C121.970239,26.5636364 118.153305,30 109.194112,30 C100.446972,30 96.7360633,26.2909091 98.3794655,14.7818182 C99.9698548,3.87272727 103.62775,0 112.905021,0 C121.652162,0 125.257044,3.87272727 123.613642,15.2181818 Z M104.263906,15.2181818 C103.044607,23.1272727 104.15788,25.5272727 109.353151,25.5272727 C114.548423,25.5272727 116.562916,23.1272727 117.782214,14.8363636 C119.054526,6.65454545 117.835227,4.52727273 112.692969,4.52727273 C107.391671,4.47272727 105.536217,6.81818182 104.263906,15.2181818 Z" id="Shape" fill="#484848"></path>
                <path d="M53,8.10552764 L46.2576832,24.9371859 C45.2789598,27.4170854 42.8321513,29 40.1134752,29 L40.1134752,29 L35.8723404,29 C34.9479905,29 34.2955083,28.4723618 34.1867612,27.7336683 L30,8 L35.8179669,8 L38.6453901,25.2537688 L38.9172577,25.2537688 L38.9172577,25.2537688 C40.1134752,25.2537688 41.2009456,24.5150754 41.6359338,23.4070352 L47.5082742,8 L53,8 L53,8.10552764 Z" id="Path" fill="#484848"></path>
                <path d="M72.2789724,28.2045455 C69.489148,28.9469697 66.9181334,29 64.0736067,29 C55.9229434,29 53.1331191,25.3409091 54.2271678,18.0227273 C55.375919,10.2272727 58.6580653,8 66.9181334,8 C74.7952845,8 76.4910601,10.6515152 75.8893333,14.6287879 C75.232904,18.6590909 72.4977821,20.0909091 66.863431,20.4090909 L59.7521141,20.9393939 C59.8615189,24.3333333 61.7214018,24.969697 64.7847384,24.969697 C67.1916456,24.969697 70.2549822,24.7575758 72.9901041,24.4393939 L72.2789724,28.2045455 Z M66.4805139,17.1742424 C68.9421236,17.0151515 70.0908748,16.3787879 70.4190895,14.2575758 C70.6378992,12.030303 69.4344456,11.9772727 66.2070017,11.9772727 C62.2137238,12.030303 60.9008653,13.0378788 60.0803287,17.7045455 L66.4805139,17.1742424 Z" id="Shape" fill="#484848"></path>
                <path d="M157.038168,19.0310539 C153.671756,17.6523698 152.335878,15.8494753 152.709924,12.9860546 C153.19084,9.22118669 156.183206,7.94855527 162.274809,8.00158158 C165.480916,8.05460789 169.541985,8.37276574 172,8.74394991 L170.717557,12.1376337 C167.885496,12.0315811 165.961832,12.0315811 162.648855,12.0315811 C159.335878,12.0315811 158.160305,12.0846074 158,13.3572388 C157.839695,14.5768439 158.801527,14.9480281 160.51145,15.6373701 L166.122137,17.9175014 C169.648855,19.3492117 171.091603,20.7278958 170.664122,23.8034217 C169.969466,28.4697369 166.335878,29 160.030534,29 C155.221374,29 154.419847,28.7348685 151,28.3636843 L152.335878,24.9169742 C154.152672,25.0230268 156.450382,25.0760531 158.427481,25.0760531 C163.877863,25.0760531 165.10687,24.7578953 165.374046,23.4852638 C165.534351,22.2656587 164.625954,22.1065798 162.70229,21.3111852 L157.038168,19.0310539 Z" id="Path" fill="#484848"></path>
                <path d="M139.185115,8 C131.26947,8 128.038595,11.0535714 126.85394,18.6607143 C126.746244,19.25 124,38 124,38 L129.761728,38 L131.107926,28.7321429 C132.615668,29.3214286 134.231106,29.375 136.546567,29.375 C144.24682,29.375 147.585392,26.5357143 148.770046,18.875 C149.900853,11.1071429 146.885369,8 139.185115,8 Z M143.062166,18.5 C142.254447,23.75 140.692857,25.3035714 136.546567,25.3035714 C134.231106,25.3035714 131.700254,24.5535714 131.700254,24.5535714 C131.700254,24.5535714 132.238733,21.0178571 132.56182,18.875 C133.423387,13.3035714 135.038825,12.0178571 139.131267,12.0178571 C143.008318,11.9642857 143.869885,13.3571429 143.062166,18.5 Z" id="Shape" fill="#484848"></path>
                <path d="M96,8 L88.8301887,8 C82.5309973,8 79.9191375,10.3274559 78.8436658,16.6221662 L78.8436658,16.6221662 L77,29 L82.2237197,29 L83.9649596,16.6221662 L83.9649596,16.6221662 C84.7331536,12.5491184 86.115903,11.5969773 89.1374663,11.5969773 L94.6684636,11.5969773 L96,8 Z" id="Path" fill="#484848"></path>
                <path d="M6.2208589,15.7272727 C7.49693252,7.32727273 9.35787321,5.2 14.7280164,5.2 C18.4498978,5.2 20.0981595,6.45454545 20.2576687,10.2727273 L26,10.2727273 C25.6809816,3.72727273 22.2249489,1 15.6319018,1 L0,1 L5.68916155,3.07272727 C2.87116564,5.30909091 1.27607362,9.23636364 0.372188139,15.4545455 C0.212678937,16.7090909 0.106339468,17.3636364 0.0531697342,19 L5.84867076,19 C5.95501022,17.3636364 6.06134969,16.8727273 6.2208589,15.7272727 Z" id="Path" fill="#52B2E9"></path>
                <path d="M20.057377,15.6513761 C18.8790984,23.5535168 16.932377,25.7889908 11.9118852,25.7889908 C8.42827869,25.7889908 6.84016393,25.0091743 6.58401639,21.3700306 L1,21.3700306 C1.40983607,27.6085627 5.04713115,30 11.7581967,30 C20.3647541,30 24.1045082,26.7767584 25.692623,15.9633028 C25.8463115,14.8715596 25.9487705,14.559633 26,13 L20.4159836,13 C20.3135246,13.6238532 20.2110656,14.7155963 20.057377,15.6513761 Z" id="Path" fill="#484848"></path>
            </g>
        </g>
    </g>
</svg>